<svg viewBox="0 0 1300 1300" fill="none" xmlns="http://www.w3.org/2000/svg">
	<g clip-path="url(#clip0_2_57)">
		<path d="M899.452 1196.04C667.859 1346.44 358.195 1280.62 207.797 1049.03L82.5298 856.131C-49.8203 652.33 8.10233 379.825 211.904 247.475L438.345 100.423C651.41 -37.9435 936.301 22.612 1074.67 235.677L1216.27 453.731C1351.63 662.165 1292.39 940.863 1083.96 1076.22L899.452 1196.04Z" fill="#D22B55" />
		<path d="M436.025 522.13C483.499 410.286 612.653 358.105 724.496 405.58L807.342 440.746C903.934 481.747 949 593.288 907.999 689.881L865.018 791.136C821.859 892.812 704.447 940.25 602.771 897.091L519.926 861.925C413.166 816.608 363.356 693.326 408.673 586.566L436.025 522.13Z" fill="#FFEDF1" />
	</g>
	<defs>
		<clipPath id="clip0_2_57">
			<rect width="1300" height="1300" fill="white" />
		</clipPath>
	</defs>
</svg>