<svg viewBox="0 0 2700 2700" fill="none" xmlns="http://www.w3.org/2000/svg">
	<rect width="2700" height="2700" fill="#D22B55" />
	<g clip-path="url(#clip0_2_64)">
		<path d="M1599.45 1896.04C1367.86 2046.44 1058.19 1980.62 907.797 1749.03L782.53 1556.13C650.18 1352.33 708.102 1079.83 911.904 947.475L1138.34 800.423C1351.41 662.056 1636.3 722.612 1774.67 935.677L1916.27 1153.73C2051.63 1362.16 1992.39 1640.86 1783.96 1776.22L1599.45 1896.04Z" fill="#FFEDF1" />
		<path d="M1136.02 1222.13C1183.5 1110.29 1312.65 1058.11 1424.5 1105.58L1507.34 1140.75C1603.93 1181.75 1649 1293.29 1608 1389.88L1565.02 1491.14C1521.86 1592.81 1404.45 1640.25 1302.77 1597.09L1219.93 1561.93C1113.17 1516.61 1063.36 1393.33 1108.67 1286.57L1136.02 1222.13Z" fill="#D22B55" />
	</g>
	<defs>
		<clipPath id="clip0_2_64">
			<rect width="1300" height="1300" fill="white" transform="translate(700 700)" />
		</clipPath>
	</defs>
</svg>